solid Default
  facet normal 0.000000e+00 6.123234e-17 1.000000e+00
    outer loop
      vertex -3.814697e-06 -8.499999e+00 3.208870e+00
      vertex 3.814697e-06 -1.150000e+01 3.208870e+00
      vertex 3.160439e-01 -1.150000e+01 3.208870e+00
    endloop
  endfacet
  facet normal 0.000000e+00 6.123234e-17 1.000000e+00
    outer loop
      vertex 3.160439e-01 -1.150000e+01 3.208870e+00
      vertex 3.160439e-01 -8.499999e+00 3.208870e+00
      vertex -3.814697e-06 -8.499999e+00 3.208870e+00
    endloop
  endfacet
  facet normal 2.902768e-01 5.859584e-17 9.569427e-01
    outer loop
      vertex 3.160439e-01 -8.499999e+00 3.208870e+00
      vertex 3.160439e-01 -1.150000e+01 3.208870e+00
      vertex 6.199493e-01 -1.150000e+01 3.116684e+00
    endloop
  endfacet
  facet normal 2.902834e-01 7.382289e-07 9.569407e-01
    outer loop
      vertex 6.199493e-01 -1.150000e+01 3.116684e+00
      vertex 6.199417e-01 -8.499999e+00 3.116684e+00
      vertex 3.160439e-01 -8.499999e+00 3.208870e+00
    endloop
  endfacet
  facet normal 4.714032e-01 1.198840e-06 8.819178e-01
    outer loop
      vertex 6.199417e-01 -8.499999e+00 3.116684e+00
      vertex 6.199493e-01 -1.150000e+01 3.116684e+00
      vertex 9.000244e-01 -1.150000e+01 2.966978e+00
    endloop
  endfacet
  facet normal 4.713885e-01 -5.607132e-07 8.819256e-01
    outer loop
      vertex 9.000244e-01 -1.150000e+01 2.966978e+00
      vertex 9.000244e-01 -8.499999e+00 2.966980e+00
      vertex 6.199417e-01 -8.499999e+00 3.116684e+00
    endloop
  endfacet
  facet normal 6.343958e-01 -4.914655e-07 7.730083e-01
    outer loop
      vertex 9.000244e-01 -8.499999e+00 2.966980e+00
      vertex 9.000244e-01 -1.150000e+01 2.966978e+00
      vertex 1.145512e+00 -1.150000e+01 2.765511e+00
    endloop
  endfacet
  facet normal 6.343994e-01 4.733293e-17 7.730054e-01
    outer loop
      vertex 1.145512e+00 -1.150000e+01 2.765511e+00
      vertex 1.145512e+00 -8.499999e+00 2.765511e+00
      vertex 9.000244e-01 -8.499999e+00 2.966980e+00
    endloop
  endfacet
  facet normal 7.730103e-01 3.884540e-17 6.343936e-01
    outer loop
      vertex 1.145512e+00 -8.499999e+00 2.765511e+00
      vertex 1.145512e+00 -1.150000e+01 2.765511e+00
      vertex 1.346981e+00 -1.150000e+01 2.520020e+00
    endloop
  endfacet
  facet normal 7.730078e-01 -4.033384e-07 6.343965e-01
    outer loop
      vertex 1.346981e+00 -1.150000e+01 2.520020e+00
      vertex 1.346981e+00 -8.499999e+00 2.520021e+00
      vertex 1.145512e+00 -8.499999e+00 2.765511e+00
    endloop
  endfacet
  facet normal 8.819203e-01 -2.997071e-07 4.713985e-01
    outer loop
      vertex 1.346981e+00 -8.499999e+00 2.520021e+00
      vertex 1.346981e+00 -1.150000e+01 2.520020e+00
      vertex 1.496685e+00 -1.150000e+01 2.239944e+00
    endloop
  endfacet
  facet normal 8.819303e-01 1.943170e-06 4.713798e-01
    outer loop
      vertex 1.496685e+00 -1.150000e+01 2.239944e+00
      vertex 1.496677e+00 -8.499999e+00 2.239946e+00
      vertex 1.346981e+00 -8.499999e+00 2.520021e+00
    endloop
  endfacet
  facet normal 9.569417e-01 2.249074e-06 2.902801e-01
    outer loop
      vertex 1.496677e+00 -8.499999e+00 2.239946e+00
      vertex 1.496685e+00 -1.150000e+01 2.239944e+00
      vertex 1.588871e+00 -1.150000e+01 1.936043e+00
    endloop
  endfacet
  facet normal 9.569350e-01 -1.845691e-07 2.903021e-01
    outer loop
      vertex 1.588871e+00 -1.150000e+01 1.936043e+00
      vertex 1.588871e+00 -8.499999e+00 1.936045e+00
      vertex 1.496677e+00 -8.499999e+00 2.239946e+00
    endloop
  endfacet
  facet normal 9.951847e-01 -6.231753e-08 9.801698e-02
    outer loop
      vertex 1.588871e+00 -8.499999e+00 1.936045e+00
      vertex 1.588871e+00 -1.150000e+01 1.936043e+00
      vertex 1.619999e+00 -1.150000e+01 1.619995e+00
    endloop
  endfacet
  facet normal 9.951847e-01 -1.246358e-07 9.801757e-02
    outer loop
      vertex 1.619999e+00 -1.150000e+01 1.619995e+00
      vertex 1.619999e+00 -8.499999e+00 1.619999e+00
      vertex 1.588871e+00 -8.499999e+00 1.936045e+00
    endloop
  endfacet
  facet normal 9.951835e-01 1.246509e-07 -9.802947e-02
    outer loop
      vertex 1.619999e+00 -8.499999e+00 1.619999e+00
      vertex 1.619999e+00 -1.150000e+01 1.619995e+00
      vertex 1.588867e+00 -1.150000e+01 1.303949e+00
    endloop
  endfacet
  facet normal 9.951847e-01 -1.140807e-06 -9.801757e-02
    outer loop
      vertex 1.588867e+00 -1.150000e+01 1.303949e+00
      vertex 1.588871e+00 -8.499999e+00 1.303953e+00
      vertex 1.619999e+00 -8.499999e+00 1.619999e+00
    endloop
  endfacet
  facet normal 9.569378e-01 -8.476831e-07 -2.902927e-01
    outer loop
      vertex 1.588871e+00 -8.499999e+00 1.303953e+00
      vertex 1.588867e+00 -1.150000e+01 1.303949e+00
      vertex 1.496677e+00 -1.150000e+01 1.000050e+00
    endloop
  endfacet
  facet normal 9.569350e-01 1.845691e-07 -2.903021e-01
    outer loop
      vertex 1.496677e+00 -1.150000e+01 1.000050e+00
      vertex 1.496677e+00 -8.499999e+00 1.000051e+00
      vertex 1.588871e+00 -8.499999e+00 1.303953e+00
    endloop
  endfacet
  facet normal 8.819203e-01 2.997071e-07 -4.713985e-01
    outer loop
      vertex 1.496677e+00 -8.499999e+00 1.000051e+00
      vertex 1.496677e+00 -1.150000e+01 1.000050e+00
      vertex 1.346973e+00 -1.150000e+01 7.199745e-01
    endloop
  endfacet
  facet normal 8.819303e-01 -1.943170e-06 -4.713798e-01
    outer loop
      vertex 1.346973e+00 -1.150000e+01 7.199745e-01
      vertex 1.346981e+00 -8.499999e+00 7.199764e-01
      vertex 1.496677e+00 -8.499999e+00 1.000051e+00
    endloop
  endfacet
  facet normal 7.730137e-01 -1.562542e-06 -6.343893e-01
    outer loop
      vertex 1.346981e+00 -8.499999e+00 7.199764e-01
      vertex 1.346973e+00 -1.150000e+01 7.199745e-01
      vertex 1.145508e+00 -1.150000e+01 4.744854e-01
    endloop
  endfacet
  facet normal 7.730078e-01 -5.795918e-07 -6.343965e-01
    outer loop
      vertex 1.145508e+00 -1.150000e+01 4.744854e-01
      vertex 1.145512e+00 -8.499999e+00 4.744873e-01
      vertex 1.346981e+00 -8.499999e+00 7.199764e-01
    endloop
  endfacet
  facet normal 6.344017e-01 -3.152211e-07 -7.730035e-01
    outer loop
      vertex 1.145512e+00 -8.499999e+00 4.744873e-01
      vertex 1.145508e+00 -1.150000e+01 4.744854e-01
      vertex 9.000244e-01 -1.150000e+01 2.730179e-01
    endloop
  endfacet
  facet normal 6.343994e-01 -4.733293e-17 -7.730054e-01
    outer loop
      vertex 9.000244e-01 -1.150000e+01 2.730179e-01
      vertex 9.000244e-01 -8.499999e+00 2.730179e-01
      vertex 1.145512e+00 -8.499999e+00 4.744873e-01
    endloop
  endfacet
  facet normal 4.713885e-01 -5.400237e-17 -8.819256e-01
    outer loop
      vertex 9.000244e-01 -8.499999e+00 2.730179e-01
      vertex 9.000244e-01 -1.150000e+01 2.730179e-01
      vertex 6.199417e-01 -1.150000e+01 1.233139e-01
    endloop
  endfacet
  facet normal 4.713885e-01 -5.400237e-17 -8.819256e-01
    outer loop
      vertex 6.199417e-01 -1.150000e+01 1.233139e-01
      vertex 6.199417e-01 -8.499999e+00 1.233139e-01
      vertex 9.000244e-01 -8.499999e+00 2.730179e-01
    endloop
  endfacet
  facet normal 2.902834e-01 -5.859572e-17 -9.569407e-01
    outer loop
      vertex 6.199417e-01 -8.499999e+00 1.233139e-01
      vertex 6.199417e-01 -1.150000e+01 1.233139e-01
      vertex 3.160439e-01 -1.150000e+01 3.112793e-02
    endloop
  endfacet
  facet normal 2.902834e-01 -5.859572e-17 -9.569407e-01
    outer loop
      vertex 3.160439e-01 -1.150000e+01 3.112793e-02
      vertex 3.160439e-01 -8.499999e+00 3.112793e-02
      vertex 6.199417e-01 -8.499999e+00 1.233139e-01
    endloop
  endfacet
  facet normal 9.801933e-02 -6.093748e-17 -9.951845e-01
    outer loop
      vertex 3.160439e-01 -8.499999e+00 3.112793e-02
      vertex 3.160439e-01 -1.150000e+01 3.112793e-02
      vertex 3.814697e-06 -1.150000e+01 3.552714e-15
    endloop
  endfacet
  facet normal 9.801698e-02 2.492701e-07 -9.951847e-01
    outer loop
      vertex 3.814697e-06 -1.150000e+01 3.552714e-15
      vertex -3.814697e-06 -8.499999e+00 3.552714e-15
      vertex 3.160439e-01 -8.499999e+00 3.112793e-02
    endloop
  endfacet
  facet normal -9.800987e-02 -2.492520e-07 -9.951854e-01
    outer loop
      vertex -3.814697e-06 -8.499999e+00 3.552714e-15
      vertex 3.814697e-06 -1.150000e+01 3.552714e-15
      vertex -3.160477e-01 -1.150000e+01 3.112602e-02
    endloop
  endfacet
  facet normal -9.801816e-02 6.327214e-07 -9.951846e-01
    outer loop
      vertex -3.160477e-01 -1.150000e+01 3.112602e-02
      vertex -3.160477e-01 -8.499999e+00 3.112793e-02
      vertex -3.814697e-06 -8.499999e+00 3.552714e-15
    endloop
  endfacet
  facet normal -2.902834e-01 6.084065e-07 -9.569407e-01
    outer loop
      vertex -3.160477e-01 -8.499999e+00 3.112793e-02
      vertex -3.160477e-01 -1.150000e+01 3.112602e-02
      vertex -6.199455e-01 -1.150000e+01 1.233120e-01
    endloop
  endfacet
  facet normal -2.902801e-01 2.392970e-07 -9.569417e-01
    outer loop
      vertex -6.199455e-01 -1.150000e+01 1.233120e-01
      vertex -6.199493e-01 -8.499999e+00 1.233139e-01
      vertex -3.160477e-01 -8.499999e+00 3.112793e-02
    endloop
  endfacet
  facet normal -4.713936e-01 -3.869636e-08 -8.819230e-01
    outer loop
      vertex -6.199493e-01 -8.499999e+00 1.233139e-01
      vertex -6.199455e-01 -1.150000e+01 1.233120e-01
      vertex -9.000244e-01 -1.150000e+01 2.730160e-01
    endloop
  endfacet
  facet normal -4.713985e-01 5.607099e-07 -8.819203e-01
    outer loop
      vertex -9.000244e-01 -1.150000e+01 2.730160e-01
      vertex -9.000244e-01 -8.499999e+00 2.730179e-01
      vertex -6.199493e-01 -8.499999e+00 1.233139e-01
    endloop
  endfacet
  facet normal -6.343899e-01 4.914685e-07 -7.730132e-01
    outer loop
      vertex -9.000244e-01 -8.499999e+00 2.730179e-01
      vertex -9.000244e-01 -1.150000e+01 2.730160e-01
      vertex -1.145515e+00 -1.150000e+01 4.744835e-01
    endloop
  endfacet
  facet normal -6.343936e-01 9.829333e-07 -7.730103e-01
    outer loop
      vertex -1.145515e+00 -1.150000e+01 4.744835e-01
      vertex -1.145515e+00 -8.499999e+00 4.744873e-01
      vertex -9.000244e-01 -8.499999e+00 2.730179e-01
    endloop
  endfacet
  facet normal -7.730113e-01 8.066715e-07 -6.343923e-01
    outer loop
      vertex -1.145515e+00 -8.499999e+00 4.744873e-01
      vertex -1.145515e+00 -1.150000e+01 4.744835e-01
      vertex -1.346981e+00 -1.150000e+01 7.199707e-01
    endloop
  endfacet
  facet normal -7.730137e-01 1.210002e-06 -6.343893e-01
    outer loop
      vertex -1.346981e+00 -1.150000e+01 7.199707e-01
      vertex -1.346981e+00 -8.499999e+00 7.199764e-01
      vertex -1.145515e+00 -8.499999e+00 4.744873e-01
    endloop
  endfacet
  facet normal -8.819203e-01 8.991213e-07 -4.713985e-01
    outer loop
      vertex -1.346981e+00 -8.499999e+00 7.199764e-01
      vertex -1.346981e+00 -1.150000e+01 7.199707e-01
      vertex -1.496685e+00 -1.150000e+01 1.000046e+00
    endloop
  endfacet
  facet normal -8.819216e-01 1.198822e-06 -4.713960e-01
    outer loop
      vertex -1.496685e+00 -1.150000e+01 1.000046e+00
      vertex -1.496685e+00 -8.499999e+00 1.000053e+00
      vertex -1.346981e+00 -8.499999e+00 7.199764e-01
    endloop
  endfacet
  facet normal -9.569384e-01 7.382484e-07 -2.902911e-01
    outer loop
      vertex -1.496685e+00 -8.499999e+00 1.000053e+00
      vertex -1.496685e+00 -1.150000e+01 1.000046e+00
      vertex -1.588875e+00 -1.150000e+01 1.303947e+00
    endloop
  endfacet
  facet normal -9.569384e-01 7.382484e-07 -2.902911e-01
    outer loop
      vertex -1.588875e+00 -1.150000e+01 1.303947e+00
      vertex -1.588875e+00 -8.499999e+00 1.303955e+00
      vertex -1.496685e+00 -8.499999e+00 1.000053e+00
    endloop
  endfacet
  facet normal -9.951835e-01 2.493018e-07 -9.802947e-02
    outer loop
      vertex -1.588875e+00 -8.499999e+00 1.303955e+00
      vertex -1.588875e+00 -1.150000e+01 1.303947e+00
      vertex -1.620007e+00 -1.150000e+01 1.619993e+00
    endloop
  endfacet
  facet normal -9.951835e-01 2.493018e-07 -9.802947e-02
    outer loop
      vertex -1.620007e+00 -1.150000e+01 1.619993e+00
      vertex -1.620007e+00 -8.499999e+00 1.620001e+00
      vertex -1.588875e+00 -8.499999e+00 1.303955e+00
    endloop
  endfacet
  facet normal -9.951835e-01 -2.493018e-07 9.802947e-02
    outer loop
      vertex -1.620007e+00 -8.499999e+00 1.620001e+00
      vertex -1.620007e+00 -1.150000e+01 1.619993e+00
      vertex -1.588875e+00 -1.150000e+01 1.936039e+00
    endloop
  endfacet
  facet normal -9.951835e-01 -2.493018e-07 9.802947e-02
    outer loop
      vertex -1.588875e+00 -1.150000e+01 1.936039e+00
      vertex -1.588875e+00 -8.499999e+00 1.936047e+00
      vertex -1.620007e+00 -8.499999e+00 1.620001e+00
    endloop
  endfacet
  facet normal -9.569374e-01 -7.382569e-07 2.902944e-01
    outer loop
      vertex -1.588875e+00 -8.499999e+00 1.936047e+00
      vertex -1.588875e+00 -1.150000e+01 1.936039e+00
      vertex -1.496685e+00 -1.150000e+01 2.239937e+00
    endloop
  endfacet
  facet normal -9.569384e-01 -1.107373e-06 2.902911e-01
    outer loop
      vertex -1.496685e+00 -1.150000e+01 2.239937e+00
      vertex -1.496685e+00 -8.499999e+00 2.239948e+00
      vertex -1.588875e+00 -8.499999e+00 1.936047e+00
    endloop
  endfacet
  facet normal -8.819330e-01 -1.798152e-06 4.713749e-01
    outer loop
      vertex -1.496685e+00 -8.499999e+00 2.239948e+00
      vertex -1.496685e+00 -1.150000e+01 2.239937e+00
      vertex -1.346989e+00 -1.150000e+01 2.520016e+00
    endloop
  endfacet
  facet normal -8.819203e-01 1.044011e-06 4.713985e-01
    outer loop
      vertex -1.346989e+00 -1.150000e+01 2.520016e+00
      vertex -1.346981e+00 -8.499999e+00 2.520023e+00
      vertex -1.496685e+00 -8.499999e+00 2.239948e+00
    endloop
  endfacet
  facet normal -7.730078e-01 3.525068e-07 6.343965e-01
    outer loop
      vertex -1.346981e+00 -8.499999e+00 2.520023e+00
      vertex -1.346989e+00 -1.150000e+01 2.520016e+00
      vertex -1.145519e+00 -1.150000e+01 2.765505e+00
    endloop
  endfacet
  facet normal -7.730137e-01 -6.303977e-07 6.343893e-01
    outer loop
      vertex -1.145519e+00 -1.150000e+01 2.765505e+00
      vertex -1.145515e+00 -8.499999e+00 2.765512e+00
      vertex -1.346981e+00 -8.499999e+00 2.520023e+00
    endloop
  endfacet
  facet normal -6.344053e-01 -1.159154e-06 7.730005e-01
    outer loop
      vertex -1.145515e+00 -8.499999e+00 2.765512e+00
      vertex -1.145519e+00 -1.150000e+01 2.765505e+00
      vertex -9.000359e-01 -1.150000e+01 2.966974e+00
    endloop
  endfacet
  facet normal -6.343899e-01 9.456000e-07 7.730132e-01
    outer loop
      vertex -9.000359e-01 -1.150000e+01 2.966974e+00
      vertex -9.000244e-01 -8.499999e+00 2.966980e+00
      vertex -1.145515e+00 -8.499999e+00 2.765512e+00
    endloop
  endfacet
  facet normal -4.713982e-01 1.161117e-07 8.819205e-01
    outer loop
      vertex -9.000244e-01 -8.499999e+00 2.966980e+00
      vertex -9.000359e-01 -1.150000e+01 2.966974e+00
      vertex -6.199570e-01 -1.150000e+01 3.116680e+00
    endloop
  endfacet
  facet normal -4.713936e-01 6.768006e-07 8.819230e-01
    outer loop
      vertex -6.199570e-01 -1.150000e+01 3.116680e+00
      vertex -6.199455e-01 -8.499999e+00 3.116684e+00
      vertex -9.000244e-01 -8.499999e+00 2.966980e+00
    endloop
  endfacet
  facet normal -2.902944e-01 -1.094234e-07 9.569374e-01
    outer loop
      vertex -6.199455e-01 -8.499999e+00 3.116684e+00
      vertex -6.199570e-01 -1.150000e+01 3.116680e+00
      vertex -3.160591e-01 -1.150000e+01 3.208870e+00
    endloop
  endfacet
  facet normal -2.902889e-01 4.989589e-07 9.569390e-01
    outer loop
      vertex -3.160591e-01 -1.150000e+01 3.208870e+00
      vertex -3.160477e-01 -8.499999e+00 3.208872e+00
      vertex -6.199455e-01 -8.499999e+00 3.116684e+00
    endloop
  endfacet
  facet normal 6.035076e-06 1.534805e-11 1.000000e+00
    outer loop
      vertex 3.814697e-06 -1.150000e+01 3.208870e+00
      vertex -3.814697e-06 -8.499999e+00 3.208870e+00
      vertex -3.160477e-01 -8.499999e+00 3.208872e+00
    endloop
  endfacet
  facet normal 0.000000e+00 -6.357829e-07 1.000000e+00
    outer loop
      vertex -3.160477e-01 -8.499999e+00 3.208872e+00
      vertex -3.160591e-01 -1.150000e+01 3.208870e+00
      vertex 3.814697e-06 -1.150000e+01 3.208870e+00
    endloop
  endfacet
  facet normal NaN NaN NaN
    outer loop
      vertex -3.160591e-01 -1.150000e+01 3.208870e+00
      vertex -3.814697e-06 -1.150000e+01 1.619999e+00
      vertex -3.814697e-06 -1.150000e+01 1.619999e+00
    endloop
  endfacet
  facet normal 0.000000e+00 -1.000000e+00 6.123234e-17
    outer loop
      vertex -3.814697e-06 -1.150000e+01 1.619999e+00
      vertex 3.814697e-06 -1.150000e+01 3.208870e+00
      vertex -3.160591e-01 -1.150000e+01 3.208870e+00
    endloop
  endfacet
  facet normal 0.000000e+00 -1.000000e+00 6.123234e-17
    outer loop
      vertex -3.160591e-01 -1.150000e+01 3.208870e+00
      vertex -6.199570e-01 -1.150000e+01 3.116680e+00
      vertex -3.814697e-06 -1.150000e+01 1.619999e+00
    endloop
  endfacet
  facet normal NaN NaN NaN
    outer loop
      vertex -3.814697e-06 -1.150000e+01 1.619999e+00
      vertex -3.814697e-06 -1.150000e+01 1.619999e+00
      vertex -3.160591e-01 -1.150000e+01 3.208870e+00
    endloop
  endfacet
  facet normal 0.000000e+00 -1.000000e+00 6.123234e-17
    outer loop
      vertex -6.199570e-01 -1.150000e+01 3.116680e+00
      vertex -9.000359e-01 -1.150000e+01 2.966974e+00
      vertex -3.814697e-06 -1.150000e+01 1.619999e+00
    endloop
  endfacet
  facet normal NaN NaN NaN
    outer loop
      vertex -3.814697e-06 -1.150000e+01 1.619999e+00
      vertex -3.814697e-06 -1.150000e+01 1.619999e+00
      vertex -6.199570e-01 -1.150000e+01 3.116680e+00
    endloop
  endfacet
  facet normal 0.000000e+00 -1.000000e+00 6.123234e-17
    outer loop
      vertex -9.000359e-01 -1.150000e+01 2.966974e+00
      vertex -1.145519e+00 -1.150000e+01 2.765505e+00
      vertex -3.814697e-06 -1.150000e+01 1.619999e+00
    endloop
  endfacet
  facet normal NaN NaN NaN
    outer loop
      vertex -3.814697e-06 -1.150000e+01 1.619999e+00
      vertex -3.814697e-06 -1.150000e+01 1.619999e+00
      vertex -9.000359e-01 -1.150000e+01 2.966974e+00
    endloop
  endfacet
  facet normal 0.000000e+00 -1.000000e+00 6.123234e-17
    outer loop
      vertex -1.145519e+00 -1.150000e+01 2.765505e+00
      vertex -1.346989e+00 -1.150000e+01 2.520016e+00
      vertex -3.814697e-06 -1.150000e+01 1.619999e+00
    endloop
  endfacet
  facet normal NaN NaN NaN
    outer loop
      vertex -3.814697e-06 -1.150000e+01 1.619999e+00
      vertex -3.814697e-06 -1.150000e+01 1.619999e+00
      vertex -1.145519e+00 -1.150000e+01 2.765505e+00
    endloop
  endfacet
  facet normal 0.000000e+00 -1.000000e+00 6.123234e-17
    outer loop
      vertex -1.346989e+00 -1.150000e+01 2.520016e+00
      vertex -1.496685e+00 -1.150000e+01 2.239937e+00
      vertex -3.814697e-06 -1.150000e+01 1.619999e+00
    endloop
  endfacet
  facet normal NaN NaN NaN
    outer loop
      vertex -3.814697e-06 -1.150000e+01 1.619999e+00
      vertex -3.814697e-06 -1.150000e+01 1.619999e+00
      vertex -1.346989e+00 -1.150000e+01 2.520016e+00
    endloop
  endfacet
  facet normal 0.000000e+00 -1.000000e+00 6.123234e-17
    outer loop
      vertex -1.496685e+00 -1.150000e+01 2.239937e+00
      vertex -1.588875e+00 -1.150000e+01 1.936039e+00
      vertex -3.814697e-06 -1.150000e+01 1.619999e+00
    endloop
  endfacet
  facet normal NaN NaN NaN
    outer loop
      vertex -3.814697e-06 -1.150000e+01 1.619999e+00
      vertex -3.814697e-06 -1.150000e+01 1.619999e+00
      vertex -1.496685e+00 -1.150000e+01 2.239937e+00
    endloop
  endfacet
  facet normal 0.000000e+00 -1.000000e+00 6.123234e-17
    outer loop
      vertex -1.588875e+00 -1.150000e+01 1.936039e+00
      vertex -1.620007e+00 -1.150000e+01 1.619993e+00
      vertex -3.814697e-06 -1.150000e+01 1.619999e+00
    endloop
  endfacet
  facet normal NaN NaN NaN
    outer loop
      vertex -3.814697e-06 -1.150000e+01 1.619999e+00
      vertex -3.814697e-06 -1.150000e+01 1.619999e+00
      vertex -1.588875e+00 -1.150000e+01 1.936039e+00
    endloop
  endfacet
  facet normal 0.000000e+00 -1.000000e+00 6.123234e-17
    outer loop
      vertex -1.620007e+00 -1.150000e+01 1.619993e+00
      vertex -1.588875e+00 -1.150000e+01 1.303947e+00
      vertex -3.814697e-06 -1.150000e+01 1.619999e+00
    endloop
  endfacet
  facet normal NaN NaN NaN
    outer loop
      vertex -3.814697e-06 -1.150000e+01 1.619999e+00
      vertex -3.814697e-06 -1.150000e+01 1.619999e+00
      vertex -1.620007e+00 -1.150000e+01 1.619993e+00
    endloop
  endfacet
  facet normal NaN NaN NaN
    outer loop
      vertex -1.496685e+00 -1.150000e+01 1.000046e+00
      vertex -3.814697e-06 -1.150000e+01 1.619999e+00
      vertex -3.814697e-06 -1.150000e+01 1.619999e+00
    endloop
  endfacet
  facet normal 0.000000e+00 -1.000000e+00 6.123234e-17
    outer loop
      vertex -3.814697e-06 -1.150000e+01 1.619999e+00
      vertex -1.588875e+00 -1.150000e+01 1.303947e+00
      vertex -1.496685e+00 -1.150000e+01 1.000046e+00
    endloop
  endfacet
  facet normal NaN NaN NaN
    outer loop
      vertex -1.346981e+00 -1.150000e+01 7.199707e-01
      vertex -3.814697e-06 -1.150000e+01 1.619999e+00
      vertex -3.814697e-06 -1.150000e+01 1.619999e+00
    endloop
  endfacet
  facet normal 0.000000e+00 -1.000000e+00 6.123234e-17
    outer loop
      vertex -3.814697e-06 -1.150000e+01 1.619999e+00
      vertex -1.496685e+00 -1.150000e+01 1.000046e+00
      vertex -1.346981e+00 -1.150000e+01 7.199707e-01
    endloop
  endfacet
  facet normal NaN NaN NaN
    outer loop
      vertex -1.145515e+00 -1.150000e+01 4.744835e-01
      vertex -3.814697e-06 -1.150000e+01 1.619999e+00
      vertex -3.814697e-06 -1.150000e+01 1.619999e+00
    endloop
  endfacet
  facet normal 0.000000e+00 -1.000000e+00 6.123234e-17
    outer loop
      vertex -3.814697e-06 -1.150000e+01 1.619999e+00
      vertex -1.346981e+00 -1.150000e+01 7.199707e-01
      vertex -1.145515e+00 -1.150000e+01 4.744835e-01
    endloop
  endfacet
  facet normal NaN NaN NaN
    outer loop
      vertex -9.000244e-01 -1.150000e+01 2.730160e-01
      vertex -3.814697e-06 -1.150000e+01 1.619999e+00
      vertex -3.814697e-06 -1.150000e+01 1.619999e+00
    endloop
  endfacet
  facet normal 0.000000e+00 -1.000000e+00 6.123234e-17
    outer loop
      vertex -3.814697e-06 -1.150000e+01 1.619999e+00
      vertex -1.145515e+00 -1.150000e+01 4.744835e-01
      vertex -9.000244e-01 -1.150000e+01 2.730160e-01
    endloop
  endfacet
  facet normal NaN NaN NaN
    outer loop
      vertex -6.199455e-01 -1.150000e+01 1.233120e-01
      vertex -3.814697e-06 -1.150000e+01 1.619999e+00
      vertex -3.814697e-06 -1.150000e+01 1.619999e+00
    endloop
  endfacet
  facet normal 0.000000e+00 -1.000000e+00 6.123234e-17
    outer loop
      vertex -3.814697e-06 -1.150000e+01 1.619999e+00
      vertex -9.000244e-01 -1.150000e+01 2.730160e-01
      vertex -6.199455e-01 -1.150000e+01 1.233120e-01
    endloop
  endfacet
  facet normal NaN NaN NaN
    outer loop
      vertex -3.160477e-01 -1.150000e+01 3.112602e-02
      vertex -3.814697e-06 -1.150000e+01 1.619999e+00
      vertex -3.814697e-06 -1.150000e+01 1.619999e+00
    endloop
  endfacet
  facet normal 0.000000e+00 -1.000000e+00 6.123234e-17
    outer loop
      vertex -3.814697e-06 -1.150000e+01 1.619999e+00
      vertex -6.199455e-01 -1.150000e+01 1.233120e-01
      vertex -3.160477e-01 -1.150000e+01 3.112602e-02
    endloop
  endfacet
  facet normal NaN NaN NaN
    outer loop
      vertex 3.814697e-06 -1.150000e+01 3.552714e-15
      vertex -3.814697e-06 -1.150000e+01 1.619999e+00
      vertex -3.814697e-06 -1.150000e+01 1.619999e+00
    endloop
  endfacet
  facet normal 0.000000e+00 -1.000000e+00 6.123234e-17
    outer loop
      vertex -3.814697e-06 -1.150000e+01 1.619999e+00
      vertex -3.160477e-01 -1.150000e+01 3.112602e-02
      vertex 3.814697e-06 -1.150000e+01 3.552714e-15
    endloop
  endfacet
  facet normal NaN NaN NaN
    outer loop
      vertex 3.160439e-01 -1.150000e+01 3.112793e-02
      vertex -3.814697e-06 -1.150000e+01 1.619999e+00
      vertex -3.814697e-06 -1.150000e+01 1.619999e+00
    endloop
  endfacet
  facet normal 0.000000e+00 -1.000000e+00 6.123234e-17
    outer loop
      vertex -3.814697e-06 -1.150000e+01 1.619999e+00
      vertex 3.814697e-06 -1.150000e+01 3.552714e-15
      vertex 3.160439e-01 -1.150000e+01 3.112793e-02
    endloop
  endfacet
  facet normal NaN NaN NaN
    outer loop
      vertex 6.199417e-01 -1.150000e+01 1.233139e-01
      vertex -3.814697e-06 -1.150000e+01 1.619999e+00
      vertex -3.814697e-06 -1.150000e+01 1.619999e+00
    endloop
  endfacet
  facet normal 0.000000e+00 -1.000000e+00 6.123234e-17
    outer loop
      vertex -3.814697e-06 -1.150000e+01 1.619999e+00
      vertex 3.160439e-01 -1.150000e+01 3.112793e-02
      vertex 6.199417e-01 -1.150000e+01 1.233139e-01
    endloop
  endfacet
  facet normal NaN NaN NaN
    outer loop
      vertex 9.000244e-01 -1.150000e+01 2.730179e-01
      vertex -3.814697e-06 -1.150000e+01 1.619999e+00
      vertex -3.814697e-06 -1.150000e+01 1.619999e+00
    endloop
  endfacet
  facet normal 0.000000e+00 -1.000000e+00 6.123234e-17
    outer loop
      vertex -3.814697e-06 -1.150000e+01 1.619999e+00
      vertex 6.199417e-01 -1.150000e+01 1.233139e-01
      vertex 9.000244e-01 -1.150000e+01 2.730179e-01
    endloop
  endfacet
  facet normal NaN NaN NaN
    outer loop
      vertex 1.145508e+00 -1.150000e+01 4.744854e-01
      vertex -3.814697e-06 -1.150000e+01 1.619999e+00
      vertex -3.814697e-06 -1.150000e+01 1.619999e+00
    endloop
  endfacet
  facet normal 0.000000e+00 -1.000000e+00 6.123234e-17
    outer loop
      vertex -3.814697e-06 -1.150000e+01 1.619999e+00
      vertex 9.000244e-01 -1.150000e+01 2.730179e-01
      vertex 1.145508e+00 -1.150000e+01 4.744854e-01
    endloop
  endfacet
  facet normal NaN NaN NaN
    outer loop
      vertex 1.346973e+00 -1.150000e+01 7.199745e-01
      vertex -3.814697e-06 -1.150000e+01 1.619999e+00
      vertex -3.814697e-06 -1.150000e+01 1.619999e+00
    endloop
  endfacet
  facet normal 0.000000e+00 -1.000000e+00 6.123234e-17
    outer loop
      vertex -3.814697e-06 -1.150000e+01 1.619999e+00
      vertex 1.145508e+00 -1.150000e+01 4.744854e-01
      vertex 1.346973e+00 -1.150000e+01 7.199745e-01
    endloop
  endfacet
  facet normal NaN NaN NaN
    outer loop
      vertex 1.496677e+00 -1.150000e+01 1.000050e+00
      vertex -3.814697e-06 -1.150000e+01 1.619999e+00
      vertex -3.814697e-06 -1.150000e+01 1.619999e+00
    endloop
  endfacet
  facet normal 0.000000e+00 -1.000000e+00 6.123234e-17
    outer loop
      vertex -3.814697e-06 -1.150000e+01 1.619999e+00
      vertex 1.346973e+00 -1.150000e+01 7.199745e-01
      vertex 1.496677e+00 -1.150000e+01 1.000050e+00
    endloop
  endfacet
  facet normal NaN NaN NaN
    outer loop
      vertex 1.588867e+00 -1.150000e+01 1.303949e+00
      vertex -3.814697e-06 -1.150000e+01 1.619999e+00
      vertex -3.814697e-06 -1.150000e+01 1.619999e+00
    endloop
  endfacet
  facet normal 0.000000e+00 -1.000000e+00 6.123234e-17
    outer loop
      vertex -3.814697e-06 -1.150000e+01 1.619999e+00
      vertex 1.496677e+00 -1.150000e+01 1.000050e+00
      vertex 1.588867e+00 -1.150000e+01 1.303949e+00
    endloop
  endfacet
  facet normal NaN NaN NaN
    outer loop
      vertex 1.619999e+00 -1.150000e+01 1.619995e+00
      vertex -3.814697e-06 -1.150000e+01 1.619999e+00
      vertex -3.814697e-06 -1.150000e+01 1.619999e+00
    endloop
  endfacet
  facet normal 0.000000e+00 -1.000000e+00 6.123234e-17
    outer loop
      vertex -3.814697e-06 -1.150000e+01 1.619999e+00
      vertex 1.588867e+00 -1.150000e+01 1.303949e+00
      vertex 1.619999e+00 -1.150000e+01 1.619995e+00
    endloop
  endfacet
  facet normal NaN NaN NaN
    outer loop
      vertex 1.588871e+00 -1.150000e+01 1.936043e+00
      vertex -3.814697e-06 -1.150000e+01 1.619999e+00
      vertex -3.814697e-06 -1.150000e+01 1.619999e+00
    endloop
  endfacet
  facet normal 0.000000e+00 -1.000000e+00 6.123234e-17
    outer loop
      vertex -3.814697e-06 -1.150000e+01 1.619999e+00
      vertex 1.619999e+00 -1.150000e+01 1.619995e+00
      vertex 1.588871e+00 -1.150000e+01 1.936043e+00
    endloop
  endfacet
  facet normal NaN NaN NaN
    outer loop
      vertex 1.496685e+00 -1.150000e+01 2.239944e+00
      vertex -3.814697e-06 -1.150000e+01 1.619999e+00
      vertex -3.814697e-06 -1.150000e+01 1.619999e+00
    endloop
  endfacet
  facet normal 0.000000e+00 -1.000000e+00 6.123234e-17
    outer loop
      vertex -3.814697e-06 -1.150000e+01 1.619999e+00
      vertex 1.588871e+00 -1.150000e+01 1.936043e+00
      vertex 1.496685e+00 -1.150000e+01 2.239944e+00
    endloop
  endfacet
  facet normal NaN NaN NaN
    outer loop
      vertex 1.346981e+00 -1.150000e+01 2.520020e+00
      vertex -3.814697e-06 -1.150000e+01 1.619999e+00
      vertex -3.814697e-06 -1.150000e+01 1.619999e+00
    endloop
  endfacet
  facet normal 0.000000e+00 -1.000000e+00 6.123234e-17
    outer loop
      vertex -3.814697e-06 -1.150000e+01 1.619999e+00
      vertex 1.496685e+00 -1.150000e+01 2.239944e+00
      vertex 1.346981e+00 -1.150000e+01 2.520020e+00
    endloop
  endfacet
  facet normal NaN NaN NaN
    outer loop
      vertex 1.145512e+00 -1.150000e+01 2.765511e+00
      vertex -3.814697e-06 -1.150000e+01 1.619999e+00
      vertex -3.814697e-06 -1.150000e+01 1.619999e+00
    endloop
  endfacet
  facet normal 0.000000e+00 -1.000000e+00 6.123234e-17
    outer loop
      vertex -3.814697e-06 -1.150000e+01 1.619999e+00
      vertex 1.346981e+00 -1.150000e+01 2.520020e+00
      vertex 1.145512e+00 -1.150000e+01 2.765511e+00
    endloop
  endfacet
  facet normal NaN NaN NaN
    outer loop
      vertex 9.000244e-01 -1.150000e+01 2.966978e+00
      vertex -3.814697e-06 -1.150000e+01 1.619999e+00
      vertex -3.814697e-06 -1.150000e+01 1.619999e+00
    endloop
  endfacet
  facet normal 0.000000e+00 -1.000000e+00 6.123234e-17
    outer loop
      vertex -3.814697e-06 -1.150000e+01 1.619999e+00
      vertex 1.145512e+00 -1.150000e+01 2.765511e+00
      vertex 9.000244e-01 -1.150000e+01 2.966978e+00
    endloop
  endfacet
  facet normal NaN NaN NaN
    outer loop
      vertex 6.199493e-01 -1.150000e+01 3.116684e+00
      vertex -3.814697e-06 -1.150000e+01 1.619999e+00
      vertex -3.814697e-06 -1.150000e+01 1.619999e+00
    endloop
  endfacet
  facet normal 0.000000e+00 -1.000000e+00 6.123234e-17
    outer loop
      vertex -3.814697e-06 -1.150000e+01 1.619999e+00
      vertex 9.000244e-01 -1.150000e+01 2.966978e+00
      vertex 6.199493e-01 -1.150000e+01 3.116684e+00
    endloop
  endfacet
  facet normal NaN NaN NaN
    outer loop
      vertex 3.160439e-01 -1.150000e+01 3.208870e+00
      vertex -3.814697e-06 -1.150000e+01 1.619999e+00
      vertex -3.814697e-06 -1.150000e+01 1.619999e+00
    endloop
  endfacet
  facet normal 0.000000e+00 -1.000000e+00 6.123234e-17
    outer loop
      vertex -3.814697e-06 -1.150000e+01 1.619999e+00
      vertex 6.199493e-01 -1.150000e+01 3.116684e+00
      vertex 3.160439e-01 -1.150000e+01 3.208870e+00
    endloop
  endfacet
  facet normal NaN NaN NaN
    outer loop
      vertex 3.814697e-06 -1.150000e+01 3.208870e+00
      vertex -3.814697e-06 -1.150000e+01 1.619999e+00
      vertex -3.814697e-06 -1.150000e+01 1.619999e+00
    endloop
  endfacet
  facet normal 0.000000e+00 -1.000000e+00 6.123234e-17
    outer loop
      vertex -3.814697e-06 -1.150000e+01 1.619999e+00
      vertex 3.160439e-01 -1.150000e+01 3.208870e+00
      vertex 3.814697e-06 -1.150000e+01 3.208870e+00
    endloop
  endfacet
  facet normal NaN NaN NaN
    outer loop
      vertex -3.814697e-06 -8.499999e+00 3.208870e+00
      vertex -3.814697e-06 -8.499999e+00 3.208870e+00
      vertex -6.320915e-01 -8.499999e+00 3.208872e+00
    endloop
  endfacet
  facet normal 0.000000e+00 1.000000e+00 -6.123234e-17
    outer loop
      vertex -6.320915e-01 -8.499999e+00 3.208872e+00
      vertex -3.160477e-01 -8.499999e+00 3.208872e+00
      vertex -3.814697e-06 -8.499999e+00 3.208870e+00
    endloop
  endfacet
  facet normal 0.000000e+00 -1.000000e+00 6.123234e-17
    outer loop
      vertex -6.199455e-01 -8.499999e+00 3.116684e+00
      vertex -3.160477e-01 -8.499999e+00 3.208872e+00
      vertex -6.320915e-01 -8.499999e+00 3.208872e+00
    endloop
  endfacet
  facet normal 0.000000e+00 -1.000000e+00 6.123234e-17
    outer loop
      vertex -6.320915e-01 -8.499999e+00 3.208872e+00
      vertex -1.239887e+00 -8.499999e+00 3.208870e+00
      vertex -6.199455e-01 -8.499999e+00 3.116684e+00
    endloop
  endfacet
  facet normal 0.000000e+00 -1.000000e+00 6.123234e-17
    outer loop
      vertex -9.000244e-01 -8.499999e+00 2.966980e+00
      vertex -6.199455e-01 -8.499999e+00 3.116684e+00
      vertex -1.239887e+00 -8.499999e+00 3.208870e+00
    endloop
  endfacet
  facet normal 0.000000e+00 -1.000000e+00 6.123234e-17
    outer loop
      vertex -1.239887e+00 -8.499999e+00 3.208870e+00
      vertex -1.800045e+00 -8.499999e+00 3.208870e+00
      vertex -9.000244e-01 -8.499999e+00 2.966980e+00
    endloop
  endfacet
  facet normal 0.000000e+00 -1.000000e+00 6.123234e-17
    outer loop
      vertex -1.145515e+00 -8.499999e+00 2.765512e+00
      vertex -9.000244e-01 -8.499999e+00 2.966980e+00
      vertex -1.800045e+00 -8.499999e+00 3.208870e+00
    endloop
  endfacet
  facet normal 0.000000e+00 -1.000000e+00 6.123234e-17
    outer loop
      vertex -1.800045e+00 -8.499999e+00 3.208870e+00
      vertex -2.291027e+00 -8.499999e+00 3.208872e+00
      vertex -1.145515e+00 -8.499999e+00 2.765512e+00
    endloop
  endfacet
  facet normal 0.000000e+00 -1.000000e+00 6.123234e-17
    outer loop
      vertex -1.346981e+00 -8.499999e+00 2.520023e+00
      vertex -1.145515e+00 -8.499999e+00 2.765512e+00
      vertex -2.291027e+00 -8.499999e+00 3.208872e+00
    endloop
  endfacet
  facet normal 0.000000e+00 -1.000000e+00 6.123234e-17
    outer loop
      vertex -2.291027e+00 -8.499999e+00 3.208872e+00
      vertex -2.693958e+00 -8.499999e+00 3.208872e+00
      vertex -1.346981e+00 -8.499999e+00 2.520023e+00
    endloop
  endfacet
  facet normal 0.000000e+00 -1.000000e+00 6.123234e-17
    outer loop
      vertex -1.496685e+00 -8.499999e+00 2.239948e+00
      vertex -1.346981e+00 -8.499999e+00 2.520023e+00
      vertex -2.693958e+00 -8.499999e+00 3.208872e+00
    endloop
  endfacet
  facet normal 0.000000e+00 -1.000000e+00 6.123234e-17
    outer loop
      vertex -2.693958e+00 -8.499999e+00 3.208872e+00
      vertex -2.993366e+00 -8.499999e+00 3.208872e+00
      vertex -1.496685e+00 -8.499999e+00 2.239948e+00
    endloop
  endfacet
  facet normal 0.000000e+00 -1.000000e+00 6.123234e-17
    outer loop
      vertex -1.588875e+00 -8.499999e+00 1.936047e+00
      vertex -1.496685e+00 -8.499999e+00 2.239948e+00
      vertex -2.993366e+00 -8.499999e+00 3.208872e+00
    endloop
  endfacet
  facet normal 0.000000e+00 -1.000000e+00 6.123234e-17
    outer loop
      vertex -2.993366e+00 -8.499999e+00 3.208872e+00
      vertex -3.177746e+00 -8.499999e+00 3.208872e+00
      vertex -1.588875e+00 -8.499999e+00 1.936047e+00
    endloop
  endfacet
  facet normal 0.000000e+00 -1.000000e+00 6.123234e-17
    outer loop
      vertex -1.620007e+00 -8.499999e+00 1.620001e+00
      vertex -1.588875e+00 -8.499999e+00 1.936047e+00
      vertex -3.177746e+00 -8.499999e+00 3.208872e+00
    endloop
  endfacet
  facet normal 0.000000e+00 -1.000000e+00 6.123234e-17
    outer loop
      vertex -3.177746e+00 -8.499999e+00 3.208872e+00
      vertex -3.177746e+00 -8.499999e+00 1.620001e+00
      vertex -1.620007e+00 -8.499999e+00 1.620001e+00
    endloop
  endfacet
  facet normal 0.000000e+00 -1.000000e+00 6.123234e-17
    outer loop
      vertex -1.588875e+00 -8.499999e+00 1.303955e+00
      vertex -1.620007e+00 -8.499999e+00 1.620001e+00
      vertex -3.177746e+00 -8.499999e+00 1.620001e+00
    endloop
  endfacet
  facet normal 0.000000e+00 -1.000000e+00 6.123234e-17
    outer loop
      vertex -3.177746e+00 -8.499999e+00 1.620001e+00
      vertex -3.177746e+00 -8.499999e+00 1.907349e-06
      vertex -1.588875e+00 -8.499999e+00 1.303955e+00
    endloop
  endfacet
  facet normal 0.000000e+00 -1.000000e+00 6.123234e-17
    outer loop
      vertex -1.588875e+00 -8.499999e+00 1.303955e+00
      vertex -3.177746e+00 -8.499999e+00 1.907349e-06
      vertex -2.993366e+00 -8.499999e+00 1.907349e-06
    endloop
  endfacet
  facet normal 0.000000e+00 -1.000000e+00 6.123234e-17
    outer loop
      vertex -2.993366e+00 -8.499999e+00 1.907349e-06
      vertex -1.496685e+00 -8.499999e+00 1.000053e+00
      vertex -1.588875e+00 -8.499999e+00 1.303955e+00
    endloop
  endfacet
  facet normal 0.000000e+00 -1.000000e+00 6.123234e-17
    outer loop
      vertex -1.496685e+00 -8.499999e+00 1.000053e+00
      vertex -2.993366e+00 -8.499999e+00 1.907349e-06
      vertex -2.693958e+00 -8.499999e+00 3.552714e-15
    endloop
  endfacet
  facet normal 0.000000e+00 -1.000000e+00 6.123234e-17
    outer loop
      vertex -2.693958e+00 -8.499999e+00 3.552714e-15
      vertex -1.346981e+00 -8.499999e+00 7.199764e-01
      vertex -1.496685e+00 -8.499999e+00 1.000053e+00
    endloop
  endfacet
  facet normal 0.000000e+00 -1.000000e+00 6.123234e-17
    outer loop
      vertex -1.346981e+00 -8.499999e+00 7.199764e-01
      vertex -2.693958e+00 -8.499999e+00 3.552714e-15
      vertex -2.291027e+00 -8.499999e+00 3.552714e-15
    endloop
  endfacet
  facet normal 0.000000e+00 -1.000000e+00 6.123234e-17
    outer loop
      vertex -2.291027e+00 -8.499999e+00 3.552714e-15
      vertex -1.145515e+00 -8.499999e+00 4.744873e-01
      vertex -1.346981e+00 -8.499999e+00 7.199764e-01
    endloop
  endfacet
  facet normal 0.000000e+00 -1.000000e+00 6.123234e-17
    outer loop
      vertex -1.145515e+00 -8.499999e+00 4.744873e-01
      vertex -2.291027e+00 -8.499999e+00 3.552714e-15
      vertex -1.800045e+00 -8.499999e+00 3.552714e-15
    endloop
  endfacet
  facet normal 0.000000e+00 -1.000000e+00 6.123234e-17
    outer loop
      vertex -1.800045e+00 -8.499999e+00 3.552714e-15
      vertex -9.000244e-01 -8.499999e+00 2.730179e-01
      vertex -1.145515e+00 -8.499999e+00 4.744873e-01
    endloop
  endfacet
  facet normal 0.000000e+00 -1.000000e+00 6.123234e-17
    outer loop
      vertex -9.000244e-01 -8.499999e+00 2.730179e-01
      vertex -1.800045e+00 -8.499999e+00 3.552714e-15
      vertex -1.239895e+00 -8.499999e+00 3.552714e-15
    endloop
  endfacet
  facet normal 0.000000e+00 -1.000000e+00 6.123234e-17
    outer loop
      vertex -1.239895e+00 -8.499999e+00 3.552714e-15
      vertex -6.199493e-01 -8.499999e+00 1.233139e-01
      vertex -9.000244e-01 -8.499999e+00 2.730179e-01
    endloop
  endfacet
  facet normal 0.000000e+00 -1.000000e+00 6.123234e-17
    outer loop
      vertex -6.199493e-01 -8.499999e+00 1.233139e-01
      vertex -1.239895e+00 -8.499999e+00 3.552714e-15
      vertex -6.320915e-01 -8.499999e+00 3.552714e-15
    endloop
  endfacet
  facet normal 0.000000e+00 -1.000000e+00 6.123234e-17
    outer loop
      vertex -6.320915e-01 -8.499999e+00 3.552714e-15
      vertex -3.160477e-01 -8.499999e+00 3.112793e-02
      vertex -6.199493e-01 -8.499999e+00 1.233139e-01
    endloop
  endfacet
  facet normal 0.000000e+00 -1.000000e+00 6.123234e-17
    outer loop
      vertex -3.160477e-01 -8.499999e+00 3.112793e-02
      vertex -6.320915e-01 -8.499999e+00 3.552714e-15
      vertex -3.814697e-06 -8.499999e+00 3.552714e-15
    endloop
  endfacet
  facet normal NaN NaN NaN
    outer loop
      vertex -3.814697e-06 -8.499999e+00 3.552714e-15
      vertex -3.814697e-06 -8.499999e+00 3.552714e-15
      vertex -3.160477e-01 -8.499999e+00 3.112793e-02
    endloop
  endfacet
  facet normal NaN NaN NaN
    outer loop
      vertex -3.814697e-06 -8.499999e+00 3.552714e-15
      vertex -3.814697e-06 -8.499999e+00 3.552714e-15
      vertex 6.320915e-01 -8.499999e+00 3.552714e-15
    endloop
  endfacet
  facet normal 0.000000e+00 -1.000000e+00 6.123234e-17
    outer loop
      vertex 6.320915e-01 -8.499999e+00 3.552714e-15
      vertex 3.160439e-01 -8.499999e+00 3.112793e-02
      vertex -3.814697e-06 -8.499999e+00 3.552714e-15
    endloop
  endfacet
  facet normal 0.000000e+00 -1.000000e+00 6.123234e-17
    outer loop
      vertex 3.160439e-01 -8.499999e+00 3.112793e-02
      vertex 6.320915e-01 -8.499999e+00 3.552714e-15
      vertex 1.239887e+00 -8.499999e+00 3.552714e-15
    endloop
  endfacet
  facet normal 0.000000e+00 -1.000000e+00 6.123234e-17
    outer loop
      vertex 1.239887e+00 -8.499999e+00 3.552714e-15
      vertex 6.199417e-01 -8.499999e+00 1.233139e-01
      vertex 3.160439e-01 -8.499999e+00 3.112793e-02
    endloop
  endfacet
  facet normal 0.000000e+00 -1.000000e+00 6.123234e-17
    outer loop
      vertex 6.199417e-01 -8.499999e+00 1.233139e-01
      vertex 1.239887e+00 -8.499999e+00 3.552714e-15
      vertex 1.800053e+00 -8.499999e+00 3.552714e-15
    endloop
  endfacet
  facet normal 0.000000e+00 -1.000000e+00 6.123234e-17
    outer loop
      vertex 1.800053e+00 -8.499999e+00 3.552714e-15
      vertex 9.000244e-01 -8.499999e+00 2.730179e-01
      vertex 6.199417e-01 -8.499999e+00 1.233139e-01
    endloop
  endfacet
  facet normal 0.000000e+00 -1.000000e+00 6.123234e-17
    outer loop
      vertex 9.000244e-01 -8.499999e+00 2.730179e-01
      vertex 1.800053e+00 -8.499999e+00 3.552714e-15
      vertex 2.291027e+00 -8.499999e+00 3.552714e-15
    endloop
  endfacet
  facet normal 0.000000e+00 -1.000000e+00 6.123234e-17
    outer loop
      vertex 2.291027e+00 -8.499999e+00 3.552714e-15
      vertex 1.145512e+00 -8.499999e+00 4.744873e-01
      vertex 9.000244e-01 -8.499999e+00 2.730179e-01
    endloop
  endfacet
  facet normal 0.000000e+00 -1.000000e+00 6.123234e-17
    outer loop
      vertex 1.145512e+00 -8.499999e+00 4.744873e-01
      vertex 2.291027e+00 -8.499999e+00 3.552714e-15
      vertex 2.693966e+00 -8.499999e+00 3.552714e-15
    endloop
  endfacet
  facet normal 0.000000e+00 -1.000000e+00 6.123234e-17
    outer loop
      vertex 2.693966e+00 -8.499999e+00 3.552714e-15
      vertex 1.346981e+00 -8.499999e+00 7.199764e-01
      vertex 1.145512e+00 -8.499999e+00 4.744873e-01
    endloop
  endfacet
  facet normal 0.000000e+00 -1.000000e+00 6.123234e-17
    outer loop
      vertex 1.346981e+00 -8.499999e+00 7.199764e-01
      vertex 2.693966e+00 -8.499999e+00 3.552714e-15
      vertex 2.993359e+00 -8.499999e+00 3.552714e-15
    endloop
  endfacet
  facet normal 0.000000e+00 -1.000000e+00 6.123234e-17
    outer loop
      vertex 2.993359e+00 -8.499999e+00 3.552714e-15
      vertex 1.496677e+00 -8.499999e+00 1.000051e+00
      vertex 1.346981e+00 -8.499999e+00 7.199764e-01
    endloop
  endfacet
  facet normal 0.000000e+00 -1.000000e+00 6.123234e-17
    outer loop
      vertex 1.496677e+00 -8.499999e+00 1.000051e+00
      vertex 2.993359e+00 -8.499999e+00 3.552714e-15
      vertex 3.177746e+00 -8.499999e+00 3.552714e-15
    endloop
  endfacet
  facet normal 0.000000e+00 -1.000000e+00 6.123234e-17
    outer loop
      vertex 3.177746e+00 -8.499999e+00 3.552714e-15
      vertex 1.588871e+00 -8.499999e+00 1.303953e+00
      vertex 1.496677e+00 -8.499999e+00 1.000051e+00
    endloop
  endfacet
  facet normal 0.000000e+00 -1.000000e+00 6.123234e-17
    outer loop
      vertex 1.588871e+00 -8.499999e+00 1.303953e+00
      vertex 3.177746e+00 -8.499999e+00 3.552714e-15
      vertex 3.177746e+00 -8.499999e+00 1.619999e+00
    endloop
  endfacet
  facet normal 0.000000e+00 -1.000000e+00 6.123234e-17
    outer loop
      vertex 3.177746e+00 -8.499999e+00 1.619999e+00
      vertex 1.619999e+00 -8.499999e+00 1.619999e+00
      vertex 1.588871e+00 -8.499999e+00 1.303953e+00
    endloop
  endfacet
  facet normal 0.000000e+00 -1.000000e+00 6.123234e-17
    outer loop
      vertex 1.619999e+00 -8.499999e+00 1.619999e+00
      vertex 3.177746e+00 -8.499999e+00 1.619999e+00
      vertex 3.177746e+00 -8.499999e+00 3.208870e+00
    endloop
  endfacet
  facet normal 0.000000e+00 -1.000000e+00 6.123234e-17
    outer loop
      vertex 3.177746e+00 -8.499999e+00 3.208870e+00
      vertex 1.588871e+00 -8.499999e+00 1.936045e+00
      vertex 1.619999e+00 -8.499999e+00 1.619999e+00
    endloop
  endfacet
  facet normal 0.000000e+00 -1.000000e+00 6.123234e-17
    outer loop
      vertex 1.588871e+00 -8.499999e+00 1.936045e+00
      vertex 3.177746e+00 -8.499999e+00 3.208870e+00
      vertex 2.993359e+00 -8.499999e+00 3.208870e+00
    endloop
  endfacet
  facet normal 0.000000e+00 -1.000000e+00 6.123234e-17
    outer loop
      vertex 2.993359e+00 -8.499999e+00 3.208870e+00
      vertex 1.496677e+00 -8.499999e+00 2.239946e+00
      vertex 1.588871e+00 -8.499999e+00 1.936045e+00
    endloop
  endfacet
  facet normal 0.000000e+00 -1.000000e+00 6.123234e-17
    outer loop
      vertex 1.496677e+00 -8.499999e+00 2.239946e+00
      vertex 2.993359e+00 -8.499999e+00 3.208870e+00
      vertex 2.693966e+00 -8.499999e+00 3.208870e+00
    endloop
  endfacet
  facet normal 0.000000e+00 -1.000000e+00 6.123234e-17
    outer loop
      vertex 2.693966e+00 -8.499999e+00 3.208870e+00
      vertex 1.346981e+00 -8.499999e+00 2.520021e+00
      vertex 1.496677e+00 -8.499999e+00 2.239946e+00
    endloop
  endfacet
  facet normal 0.000000e+00 -1.000000e+00 6.123234e-17
    outer loop
      vertex 1.346981e+00 -8.499999e+00 2.520021e+00
      vertex 2.693966e+00 -8.499999e+00 3.208870e+00
      vertex 2.291027e+00 -8.499999e+00 3.208870e+00
    endloop
  endfacet
  facet normal 0.000000e+00 -1.000000e+00 6.123234e-17
    outer loop
      vertex 2.291027e+00 -8.499999e+00 3.208870e+00
      vertex 1.145512e+00 -8.499999e+00 2.765511e+00
      vertex 1.346981e+00 -8.499999e+00 2.520021e+00
    endloop
  endfacet
  facet normal 0.000000e+00 -1.000000e+00 6.123234e-17
    outer loop
      vertex 1.145512e+00 -8.499999e+00 2.765511e+00
      vertex 2.291027e+00 -8.499999e+00 3.208870e+00
      vertex 1.800053e+00 -8.499999e+00 3.208870e+00
    endloop
  endfacet
  facet normal 0.000000e+00 -1.000000e+00 6.123234e-17
    outer loop
      vertex 1.800053e+00 -8.499999e+00 3.208870e+00
      vertex 9.000244e-01 -8.499999e+00 2.966980e+00
      vertex 1.145512e+00 -8.499999e+00 2.765511e+00
    endloop
  endfacet
  facet normal 0.000000e+00 -1.000000e+00 6.123234e-17
    outer loop
      vertex 9.000244e-01 -8.499999e+00 2.966980e+00
      vertex 1.800053e+00 -8.499999e+00 3.208870e+00
      vertex 1.239887e+00 -8.499999e+00 3.208870e+00
    endloop
  endfacet
  facet normal 0.000000e+00 -1.000000e+00 6.123234e-17
    outer loop
      vertex 1.239887e+00 -8.499999e+00 3.208870e+00
      vertex 6.199417e-01 -8.499999e+00 3.116684e+00
      vertex 9.000244e-01 -8.499999e+00 2.966980e+00
    endloop
  endfacet
  facet normal 0.000000e+00 -1.000000e+00 6.123234e-17
    outer loop
      vertex 6.199417e-01 -8.499999e+00 3.116684e+00
      vertex 1.239887e+00 -8.499999e+00 3.208870e+00
      vertex 6.320915e-01 -8.499999e+00 3.208870e+00
    endloop
  endfacet
  facet normal 0.000000e+00 -1.000000e+00 6.123234e-17
    outer loop
      vertex 6.320915e-01 -8.499999e+00 3.208870e+00
      vertex 3.160439e-01 -8.499999e+00 3.208870e+00
      vertex 6.199417e-01 -8.499999e+00 3.116684e+00
    endloop
  endfacet
  facet normal NaN NaN NaN
    outer loop
      vertex -3.814697e-06 -8.499999e+00 3.208870e+00
      vertex -3.814697e-06 -8.499999e+00 3.208870e+00
      vertex 3.160439e-01 -8.499999e+00 3.208870e+00
    endloop
  endfacet
  facet normal NaN NaN NaN
    outer loop
      vertex 3.160439e-01 -8.499999e+00 3.208870e+00
      vertex 6.320915e-01 -8.499999e+00 3.208870e+00
      vertex -3.814697e-06 -8.499999e+00 3.208870e+00
    endloop
  endfacet
  facet normal 0.000000e+00 6.123234e-17 1.000000e+00
    outer loop
      vertex 6.320915e-01 -8.499999e+00 3.208870e+00
      vertex 6.320915e-01 1.150000e+01 3.208870e+00
      vertex -3.814697e-06 1.150000e+01 3.208870e+00
    endloop
  endfacet
  facet normal 0.000000e+00 6.123234e-17 1.000000e+00
    outer loop
      vertex -3.814697e-06 1.150000e+01 3.208870e+00
      vertex -3.814697e-06 -8.499999e+00 3.208870e+00
      vertex 6.320915e-01 -8.499999e+00 3.208870e+00
    endloop
  endfacet
  facet normal 0.000000e+00 6.123234e-17 1.000000e+00
    outer loop
      vertex 1.239887e+00 -8.499999e+00 3.208870e+00
      vertex 1.239887e+00 1.150000e+01 3.208870e+00
      vertex 6.320915e-01 1.150000e+01 3.208870e+00
    endloop
  endfacet
  facet normal 0.000000e+00 6.123234e-17 1.000000e+00
    outer loop
      vertex 6.320915e-01 1.150000e+01 3.208870e+00
      vertex 6.320915e-01 -8.499999e+00 3.208870e+00
      vertex 1.239887e+00 -8.499999e+00 3.208870e+00
    endloop
  endfacet
  facet normal 0.000000e+00 6.123234e-17 1.000000e+00
    outer loop
      vertex 1.800053e+00 -8.499999e+00 3.208870e+00
      vertex 1.800053e+00 1.150000e+01 3.208870e+00
      vertex 1.239887e+00 1.150000e+01 3.208870e+00
    endloop
  endfacet
  facet normal 0.000000e+00 6.123234e-17 1.000000e+00
    outer loop
      vertex 1.239887e+00 1.150000e+01 3.208870e+00
      vertex 1.239887e+00 -8.499999e+00 3.208870e+00
      vertex 1.800053e+00 -8.499999e+00 3.208870e+00
    endloop
  endfacet
  facet normal 0.000000e+00 6.123234e-17 1.000000e+00
    outer loop
      vertex 2.291027e+00 -8.499999e+00 3.208870e+00
      vertex 2.291027e+00 1.150000e+01 3.208870e+00
      vertex 1.800053e+00 1.150000e+01 3.208870e+00
    endloop
  endfacet
  facet normal 0.000000e+00 6.123234e-17 1.000000e+00
    outer loop
      vertex 1.800053e+00 1.150000e+01 3.208870e+00
      vertex 1.800053e+00 -8.499999e+00 3.208870e+00
      vertex 2.291027e+00 -8.499999e+00 3.208870e+00
    endloop
  endfacet
  facet normal 0.000000e+00 6.123234e-17 1.000000e+00
    outer loop
      vertex 2.693966e+00 -8.499999e+00 3.208870e+00
      vertex 2.693966e+00 1.150000e+01 3.208870e+00
      vertex 2.291027e+00 1.150000e+01 3.208870e+00
    endloop
  endfacet
  facet normal 0.000000e+00 6.123234e-17 1.000000e+00
    outer loop
      vertex 2.291027e+00 1.150000e+01 3.208870e+00
      vertex 2.291027e+00 -8.499999e+00 3.208870e+00
      vertex 2.693966e+00 -8.499999e+00 3.208870e+00
    endloop
  endfacet
  facet normal 0.000000e+00 6.123234e-17 1.000000e+00
    outer loop
      vertex 2.993359e+00 -8.499999e+00 3.208870e+00
      vertex 2.993359e+00 1.150000e+01 3.208870e+00
      vertex 2.693966e+00 1.150000e+01 3.208870e+00
    endloop
  endfacet
  facet normal 0.000000e+00 6.123234e-17 1.000000e+00
    outer loop
      vertex 2.693966e+00 1.150000e+01 3.208870e+00
      vertex 2.693966e+00 -8.499999e+00 3.208870e+00
      vertex 2.993359e+00 -8.499999e+00 3.208870e+00
    endloop
  endfacet
  facet normal 0.000000e+00 6.123234e-17 1.000000e+00
    outer loop
      vertex 3.177746e+00 -8.499999e+00 3.208870e+00
      vertex 3.177746e+00 1.150000e+01 3.208870e+00
      vertex 2.993359e+00 1.150000e+01 3.208870e+00
    endloop
  endfacet
  facet normal 0.000000e+00 6.123234e-17 1.000000e+00
    outer loop
      vertex 2.993359e+00 1.150000e+01 3.208870e+00
      vertex 2.993359e+00 -8.499999e+00 3.208870e+00
      vertex 3.177746e+00 -8.499999e+00 3.208870e+00
    endloop
  endfacet
  facet normal 1.000000e+00 0.000000e+00 0.000000e+00
    outer loop
      vertex 3.177746e+00 -8.499999e+00 1.619999e+00
      vertex 3.177746e+00 1.150000e+01 1.619999e+00
      vertex 3.177746e+00 1.150000e+01 3.208870e+00
    endloop
  endfacet
  facet normal 1.000000e+00 0.000000e+00 0.000000e+00
    outer loop
      vertex 3.177746e+00 1.150000e+01 3.208870e+00
      vertex 3.177746e+00 -8.499999e+00 3.208870e+00
      vertex 3.177746e+00 -8.499999e+00 1.619999e+00
    endloop
  endfacet
  facet normal 1.000000e+00 0.000000e+00 0.000000e+00
    outer loop
      vertex 3.177746e+00 -8.499999e+00 3.552714e-15
      vertex 3.177746e+00 1.150000e+01 0.000000e+00
      vertex 3.177746e+00 1.150000e+01 1.619999e+00
    endloop
  endfacet
  facet normal 1.000000e+00 0.000000e+00 0.000000e+00
    outer loop
      vertex 3.177746e+00 1.150000e+01 1.619999e+00
      vertex 3.177746e+00 -8.499999e+00 1.619999e+00
      vertex 3.177746e+00 -8.499999e+00 3.552714e-15
    endloop
  endfacet
  facet normal 0.000000e+00 -6.123234e-17 -1.000000e+00
    outer loop
      vertex 2.993359e+00 -8.499999e+00 3.552714e-15
      vertex 2.993359e+00 1.150000e+01 0.000000e+00
      vertex 3.177746e+00 1.150000e+01 0.000000e+00
    endloop
  endfacet
  facet normal 0.000000e+00 -6.123234e-17 -1.000000e+00
    outer loop
      vertex 3.177746e+00 1.150000e+01 0.000000e+00
      vertex 3.177746e+00 -8.499999e+00 3.552714e-15
      vertex 2.993359e+00 -8.499999e+00 3.552714e-15
    endloop
  endfacet
  facet normal 0.000000e+00 -6.123234e-17 -1.000000e+00
    outer loop
      vertex 2.693966e+00 -8.499999e+00 3.552714e-15
      vertex 2.693966e+00 1.150000e+01 0.000000e+00
      vertex 2.993359e+00 1.150000e+01 0.000000e+00
    endloop
  endfacet
  facet normal 0.000000e+00 -6.123234e-17 -1.000000e+00
    outer loop
      vertex 2.993359e+00 1.150000e+01 0.000000e+00
      vertex 2.993359e+00 -8.499999e+00 3.552714e-15
      vertex 2.693966e+00 -8.499999e+00 3.552714e-15
    endloop
  endfacet
  facet normal 0.000000e+00 -6.123234e-17 -1.000000e+00
    outer loop
      vertex 2.291027e+00 -8.499999e+00 3.552714e-15
      vertex 2.291027e+00 1.150000e+01 0.000000e+00
      vertex 2.693966e+00 1.150000e+01 0.000000e+00
    endloop
  endfacet
  facet normal 0.000000e+00 -6.123234e-17 -1.000000e+00
    outer loop
      vertex 2.693966e+00 1.150000e+01 0.000000e+00
      vertex 2.693966e+00 -8.499999e+00 3.552714e-15
      vertex 2.291027e+00 -8.499999e+00 3.552714e-15
    endloop
  endfacet
  facet normal 0.000000e+00 -6.123234e-17 -1.000000e+00
    outer loop
      vertex 1.800053e+00 -8.499999e+00 3.552714e-15
      vertex 1.800053e+00 1.150000e+01 0.000000e+00
      vertex 2.291027e+00 1.150000e+01 0.000000e+00
    endloop
  endfacet
  facet normal 0.000000e+00 -6.123234e-17 -1.000000e+00
    outer loop
      vertex 2.291027e+00 1.150000e+01 0.000000e+00
      vertex 2.291027e+00 -8.499999e+00 3.552714e-15
      vertex 1.800053e+00 -8.499999e+00 3.552714e-15
    endloop
  endfacet
  facet normal 0.000000e+00 -6.123234e-17 -1.000000e+00
    outer loop
      vertex 1.239887e+00 -8.499999e+00 3.552714e-15
      vertex 1.239887e+00 1.150000e+01 0.000000e+00
      vertex 1.800053e+00 1.150000e+01 0.000000e+00
    endloop
  endfacet
  facet normal 0.000000e+00 -6.123234e-17 -1.000000e+00
    outer loop
      vertex 1.800053e+00 1.150000e+01 0.000000e+00
      vertex 1.800053e+00 -8.499999e+00 3.552714e-15
      vertex 1.239887e+00 -8.499999e+00 3.552714e-15
    endloop
  endfacet
  facet normal 0.000000e+00 -6.123234e-17 -1.000000e+00
    outer loop
      vertex 6.320915e-01 -8.499999e+00 3.552714e-15
      vertex 6.320915e-01 1.150000e+01 0.000000e+00
      vertex 1.239887e+00 1.150000e+01 0.000000e+00
    endloop
  endfacet
  facet normal 0.000000e+00 -6.123234e-17 -1.000000e+00
    outer loop
      vertex 1.239887e+00 1.150000e+01 0.000000e+00
      vertex 1.239887e+00 -8.499999e+00 3.552714e-15
      vertex 6.320915e-01 -8.499999e+00 3.552714e-15
    endloop
  endfacet
  facet normal 0.000000e+00 -6.123234e-17 -1.000000e+00
    outer loop
      vertex -3.814697e-06 -8.499999e+00 3.552714e-15
      vertex -3.814697e-06 1.150000e+01 0.000000e+00
      vertex 6.320915e-01 1.150000e+01 0.000000e+00
    endloop
  endfacet
  facet normal 0.000000e+00 -6.123234e-17 -1.000000e+00
    outer loop
      vertex 6.320915e-01 1.150000e+01 0.000000e+00
      vertex 6.320915e-01 -8.499999e+00 3.552714e-15
      vertex -3.814697e-06 -8.499999e+00 3.552714e-15
    endloop
  endfacet
  facet normal 0.000000e+00 -6.123234e-17 -1.000000e+00
    outer loop
      vertex -6.320915e-01 -8.499999e+00 3.552714e-15
      vertex -6.320915e-01 1.150000e+01 0.000000e+00
      vertex -3.814697e-06 1.150000e+01 0.000000e+00
    endloop
  endfacet
  facet normal 0.000000e+00 -6.123234e-17 -1.000000e+00
    outer loop
      vertex -3.814697e-06 1.150000e+01 0.000000e+00
      vertex -3.814697e-06 -8.499999e+00 3.552714e-15
      vertex -6.320915e-01 -8.499999e+00 3.552714e-15
    endloop
  endfacet
  facet normal 0.000000e+00 -6.123234e-17 -1.000000e+00
    outer loop
      vertex -1.239895e+00 -8.499999e+00 3.552714e-15
      vertex -1.239895e+00 1.150000e+01 0.000000e+00
      vertex -6.320915e-01 1.150000e+01 0.000000e+00
    endloop
  endfacet
  facet normal 0.000000e+00 -6.123234e-17 -1.000000e+00
    outer loop
      vertex -6.320915e-01 1.150000e+01 0.000000e+00
      vertex -6.320915e-01 -8.499999e+00 3.552714e-15
      vertex -1.239895e+00 -8.499999e+00 3.552714e-15
    endloop
  endfacet
  facet normal 0.000000e+00 -6.123234e-17 -1.000000e+00
    outer loop
      vertex -1.800045e+00 -8.499999e+00 3.552714e-15
      vertex -1.800045e+00 1.150000e+01 0.000000e+00
      vertex -1.239895e+00 1.150000e+01 0.000000e+00
    endloop
  endfacet
  facet normal 0.000000e+00 -6.123234e-17 -1.000000e+00
    outer loop
      vertex -1.239895e+00 1.150000e+01 0.000000e+00
      vertex -1.239895e+00 -8.499999e+00 3.552714e-15
      vertex -1.800045e+00 -8.499999e+00 3.552714e-15
    endloop
  endfacet
  facet normal 0.000000e+00 -6.123234e-17 -1.000000e+00
    outer loop
      vertex -2.291027e+00 -8.499999e+00 3.552714e-15
      vertex -2.291027e+00 1.150000e+01 0.000000e+00
      vertex -1.800045e+00 1.150000e+01 0.000000e+00
    endloop
  endfacet
  facet normal 0.000000e+00 -6.123234e-17 -1.000000e+00
    outer loop
      vertex -1.800045e+00 1.150000e+01 0.000000e+00
      vertex -1.800045e+00 -8.499999e+00 3.552714e-15
      vertex -2.291027e+00 -8.499999e+00 3.552714e-15
    endloop
  endfacet
  facet normal 0.000000e+00 -6.123234e-17 -1.000000e+00
    outer loop
      vertex -2.693958e+00 -8.499999e+00 3.552714e-15
      vertex -2.693958e+00 1.150000e+01 0.000000e+00
      vertex -2.291027e+00 1.150000e+01 0.000000e+00
    endloop
  endfacet
  facet normal 0.000000e+00 -6.123234e-17 -1.000000e+00
    outer loop
      vertex -2.291027e+00 1.150000e+01 0.000000e+00
      vertex -2.291027e+00 -8.499999e+00 3.552714e-15
      vertex -2.693958e+00 -8.499999e+00 3.552714e-15
    endloop
  endfacet
  facet normal -6.370401e-06 -6.123234e-17 -1.000000e+00
    outer loop
      vertex -2.993366e+00 -8.499999e+00 1.907349e-06
      vertex -2.993366e+00 1.150000e+01 1.907349e-06
      vertex -2.693958e+00 1.150000e+01 0.000000e+00
    endloop
  endfacet
  facet normal -6.370401e-06 -6.123234e-17 -1.000000e+00
    outer loop
      vertex -2.693958e+00 1.150000e+01 0.000000e+00
      vertex -2.693958e+00 -8.499999e+00 3.552714e-15
      vertex -2.993366e+00 -8.499999e+00 1.907349e-06
    endloop
  endfacet
  facet normal 0.000000e+00 -6.123234e-17 -1.000000e+00
    outer loop
      vertex -3.177746e+00 -8.499999e+00 1.907349e-06
      vertex -3.177746e+00 1.150000e+01 1.907349e-06
      vertex -2.993366e+00 1.150000e+01 1.907349e-06
    endloop
  endfacet
  facet normal 0.000000e+00 -6.123234e-17 -1.000000e+00
    outer loop
      vertex -2.993366e+00 1.150000e+01 1.907349e-06
      vertex -2.993366e+00 -8.499999e+00 1.907349e-06
      vertex -3.177746e+00 -8.499999e+00 1.907349e-06
    endloop
  endfacet
  facet normal -1.000000e+00 0.000000e+00 0.000000e+00
    outer loop
      vertex -3.177746e+00 -8.499999e+00 1.907349e-06
      vertex -3.177746e+00 -8.499999e+00 1.620001e+00
      vertex -3.177746e+00 1.150000e+01 1.620001e+00
    endloop
  endfacet
  facet normal -1.000000e+00 0.000000e+00 0.000000e+00
    outer loop
      vertex -3.177746e+00 1.150000e+01 1.620001e+00
      vertex -3.177746e+00 1.150000e+01 1.907349e-06
      vertex -3.177746e+00 -8.499999e+00 1.907349e-06
    endloop
  endfacet
  facet normal -1.000000e+00 0.000000e+00 0.000000e+00
    outer loop
      vertex -3.177746e+00 -8.499999e+00 1.620001e+00
      vertex -3.177746e+00 -8.499999e+00 3.208872e+00
      vertex -3.177746e+00 1.150000e+01 3.208872e+00
    endloop
  endfacet
  facet normal -1.000000e+00 0.000000e+00 0.000000e+00
    outer loop
      vertex -3.177746e+00 1.150000e+01 3.208872e+00
      vertex -3.177746e+00 1.150000e+01 1.620001e+00
      vertex -3.177746e+00 -8.499999e+00 1.620001e+00
    endloop
  endfacet
  facet normal 0.000000e+00 6.123234e-17 1.000000e+00
    outer loop
      vertex -3.177746e+00 -8.499999e+00 3.208872e+00
      vertex -2.993366e+00 -8.499999e+00 3.208872e+00
      vertex -2.993366e+00 1.150000e+01 3.208872e+00
    endloop
  endfacet
  facet normal 0.000000e+00 6.123234e-17 1.000000e+00
    outer loop
      vertex -2.993366e+00 1.150000e+01 3.208872e+00
      vertex -3.177746e+00 1.150000e+01 3.208872e+00
      vertex -3.177746e+00 -8.499999e+00 3.208872e+00
    endloop
  endfacet
  facet normal 0.000000e+00 6.123234e-17 1.000000e+00
    outer loop
      vertex -2.993366e+00 -8.499999e+00 3.208872e+00
      vertex -2.693958e+00 -8.499999e+00 3.208872e+00
      vertex -2.693958e+00 1.150000e+01 3.208872e+00
    endloop
  endfacet
  facet normal 0.000000e+00 6.123234e-17 1.000000e+00
    outer loop
      vertex -2.693958e+00 1.150000e+01 3.208872e+00
      vertex -2.993366e+00 1.150000e+01 3.208872e+00
      vertex -2.993366e+00 -8.499999e+00 3.208872e+00
    endloop
  endfacet
  facet normal 0.000000e+00 6.123234e-17 1.000000e+00
    outer loop
      vertex -2.693958e+00 -8.499999e+00 3.208872e+00
      vertex -2.291027e+00 -8.499999e+00 3.208872e+00
      vertex -2.291027e+00 1.150000e+01 3.208872e+00
    endloop
  endfacet
  facet normal 0.000000e+00 6.123234e-17 1.000000e+00
    outer loop
      vertex -2.291027e+00 1.150000e+01 3.208872e+00
      vertex -2.693958e+00 1.150000e+01 3.208872e+00
      vertex -2.693958e+00 -8.499999e+00 3.208872e+00
    endloop
  endfacet
  facet normal 3.884762e-06 6.123234e-17 1.000000e+00
    outer loop
      vertex -2.291027e+00 -8.499999e+00 3.208872e+00
      vertex -1.800045e+00 -8.499999e+00 3.208870e+00
      vertex -1.800045e+00 1.150000e+01 3.208870e+00
    endloop
  endfacet
  facet normal 3.884762e-06 6.123234e-17 1.000000e+00
    outer loop
      vertex -1.800045e+00 1.150000e+01 3.208870e+00
      vertex -2.291027e+00 1.150000e+01 3.208872e+00
      vertex -2.291027e+00 -8.499999e+00 3.208872e+00
    endloop
  endfacet
  facet normal 0.000000e+00 6.123234e-17 1.000000e+00
    outer loop
      vertex -1.800045e+00 -8.499999e+00 3.208870e+00
      vertex -1.239887e+00 -8.499999e+00 3.208870e+00
      vertex -1.239887e+00 1.150000e+01 3.208870e+00
    endloop
  endfacet
  facet normal 0.000000e+00 6.123234e-17 1.000000e+00
    outer loop
      vertex -1.239887e+00 1.150000e+01 3.208870e+00
      vertex -1.800045e+00 1.150000e+01 3.208870e+00
      vertex -1.800045e+00 -8.499999e+00 3.208870e+00
    endloop
  endfacet
  facet normal -3.138141e-06 6.123234e-17 1.000000e+00
    outer loop
      vertex -1.239887e+00 -8.499999e+00 3.208870e+00
      vertex -6.320915e-01 -8.499999e+00 3.208872e+00
      vertex -6.320915e-01 1.150000e+01 3.208872e+00
    endloop
  endfacet
  facet normal -3.138141e-06 6.123234e-17 1.000000e+00
    outer loop
      vertex -6.320915e-01 1.150000e+01 3.208872e+00
      vertex -1.239887e+00 1.150000e+01 3.208870e+00
      vertex -1.239887e+00 -8.499999e+00 3.208870e+00
    endloop
  endfacet
  facet normal 3.017538e-06 6.123234e-17 1.000000e+00
    outer loop
      vertex -3.814697e-06 -8.499999e+00 3.208870e+00
      vertex -3.814697e-06 1.150000e+01 3.208870e+00
      vertex -6.320915e-01 1.150000e+01 3.208872e+00
    endloop
  endfacet
  facet normal 3.017538e-06 6.123234e-17 1.000000e+00
    outer loop
      vertex -6.320915e-01 1.150000e+01 3.208872e+00
      vertex -6.320915e-01 -8.499999e+00 3.208872e+00
      vertex -3.814697e-06 -8.499999e+00 3.208870e+00
    endloop
  endfacet
  facet normal 0.000000e+00 1.000000e+00 -6.123234e-17
    outer loop
      vertex -2.993366e+00 1.150000e+01 3.208872e+00
      vertex -3.177746e+00 1.150000e+01 1.620001e+00
      vertex -3.177746e+00 1.150000e+01 3.208872e+00
    endloop
  endfacet
  facet normal 0.000000e+00 1.000000e+00 -6.123234e-17
    outer loop
      vertex -2.693958e+00 1.150000e+01 3.208872e+00
      vertex -3.177746e+00 1.150000e+01 1.620001e+00
      vertex -2.993366e+00 1.150000e+01 3.208872e+00
    endloop
  endfacet
  facet normal 0.000000e+00 1.000000e+00 -6.123234e-17
    outer loop
      vertex -2.291027e+00 1.150000e+01 3.208872e+00
      vertex -3.177746e+00 1.150000e+01 1.620001e+00
      vertex -2.693958e+00 1.150000e+01 3.208872e+00
    endloop
  endfacet
  facet normal 0.000000e+00 1.000000e+00 -6.123234e-17
    outer loop
      vertex -1.800045e+00 1.150000e+01 3.208870e+00
      vertex -3.177746e+00 1.150000e+01 1.620001e+00
      vertex -2.291027e+00 1.150000e+01 3.208872e+00
    endloop
  endfacet
  facet normal 0.000000e+00 1.000000e+00 -6.123234e-17
    outer loop
      vertex -1.239887e+00 1.150000e+01 3.208870e+00
      vertex -3.177746e+00 1.150000e+01 1.620001e+00
      vertex -1.800045e+00 1.150000e+01 3.208870e+00
    endloop
  endfacet
  facet normal NaN NaN NaN
    outer loop
      vertex 3.177746e+00 1.150000e+01 0.000000e+00
      vertex 1.800053e+00 1.150000e+01 0.000000e+00
      vertex 1.239887e+00 1.150000e+01 0.000000e+00
    endloop
  endfacet
  facet normal NaN NaN NaN
    outer loop
      vertex 3.177746e+00 1.150000e+01 0.000000e+00
      vertex 2.291027e+00 1.150000e+01 0.000000e+00
      vertex 1.800053e+00 1.150000e+01 0.000000e+00
    endloop
  endfacet
  facet normal NaN NaN NaN
    outer loop
      vertex 3.177746e+00 1.150000e+01 0.000000e+00
      vertex 2.693966e+00 1.150000e+01 0.000000e+00
      vertex 2.291027e+00 1.150000e+01 0.000000e+00
    endloop
  endfacet
  facet normal NaN NaN NaN
    outer loop
      vertex 3.177746e+00 1.150000e+01 0.000000e+00
      vertex 2.993359e+00 1.150000e+01 0.000000e+00
      vertex 2.693966e+00 1.150000e+01 0.000000e+00
    endloop
  endfacet
  facet normal 0.000000e+00 1.000000e+00 -6.123234e-17
    outer loop
      vertex -6.320915e-01 1.150000e+01 3.208872e+00
      vertex -3.177746e+00 1.150000e+01 1.620001e+00
      vertex -1.239887e+00 1.150000e+01 3.208870e+00
    endloop
  endfacet
  facet normal 0.000000e+00 1.000000e+00 -6.123234e-17
    outer loop
      vertex -6.320915e-01 1.150000e+01 3.208872e+00
      vertex -3.814697e-06 1.150000e+01 3.208870e+00
      vertex -3.177746e+00 1.150000e+01 1.620001e+00
    endloop
  endfacet
  facet normal 0.000000e+00 1.000000e+00 -6.123234e-17
    outer loop
      vertex 2.993359e+00 1.150000e+01 3.208870e+00
      vertex 3.177746e+00 1.150000e+01 3.208870e+00
      vertex 3.177746e+00 1.150000e+01 1.619999e+00
    endloop
  endfacet
  facet normal 0.000000e+00 1.000000e+00 -6.123234e-17
    outer loop
      vertex -3.177746e+00 1.150000e+01 1.620001e+00
      vertex -2.993366e+00 1.150000e+01 1.907349e-06
      vertex -3.177746e+00 1.150000e+01 1.907349e-06
    endloop
  endfacet
  facet normal 0.000000e+00 1.000000e+00 -6.123234e-17
    outer loop
      vertex 2.693966e+00 1.150000e+01 3.208870e+00
      vertex 2.993359e+00 1.150000e+01 3.208870e+00
      vertex 3.177746e+00 1.150000e+01 1.619999e+00
    endloop
  endfacet
  facet normal 0.000000e+00 1.000000e+00 -6.123234e-17
    outer loop
      vertex -3.177746e+00 1.150000e+01 1.620001e+00
      vertex -2.693958e+00 1.150000e+01 0.000000e+00
      vertex -2.993366e+00 1.150000e+01 1.907349e-06
    endloop
  endfacet
  facet normal 0.000000e+00 1.000000e+00 -6.123234e-17
    outer loop
      vertex 2.291027e+00 1.150000e+01 3.208870e+00
      vertex 2.693966e+00 1.150000e+01 3.208870e+00
      vertex 3.177746e+00 1.150000e+01 1.619999e+00
    endloop
  endfacet
  facet normal 0.000000e+00 1.000000e+00 -6.123234e-17
    outer loop
      vertex -3.177746e+00 1.150000e+01 1.620001e+00
      vertex -2.291027e+00 1.150000e+01 0.000000e+00
      vertex -2.693958e+00 1.150000e+01 0.000000e+00
    endloop
  endfacet
  facet normal 0.000000e+00 1.000000e+00 -6.123234e-17
    outer loop
      vertex 1.800053e+00 1.150000e+01 3.208870e+00
      vertex 2.291027e+00 1.150000e+01 3.208870e+00
      vertex 3.177746e+00 1.150000e+01 1.619999e+00
    endloop
  endfacet
  facet normal 0.000000e+00 1.000000e+00 -6.123234e-17
    outer loop
      vertex -1.800045e+00 1.150000e+01 0.000000e+00
      vertex -2.291027e+00 1.150000e+01 0.000000e+00
      vertex -3.177746e+00 1.150000e+01 1.620001e+00
    endloop
  endfacet
  facet normal 0.000000e+00 1.000000e+00 -6.123234e-17
    outer loop
      vertex 1.239887e+00 1.150000e+01 3.208870e+00
      vertex 1.800053e+00 1.150000e+01 3.208870e+00
      vertex 3.177746e+00 1.150000e+01 1.619999e+00
    endloop
  endfacet
  facet normal 0.000000e+00 1.000000e+00 -6.123234e-17
    outer loop
      vertex -1.239895e+00 1.150000e+01 0.000000e+00
      vertex -1.800045e+00 1.150000e+01 0.000000e+00
      vertex -3.177746e+00 1.150000e+01 1.620001e+00
    endloop
  endfacet
  facet normal 0.000000e+00 1.000000e+00 -6.123234e-17
    outer loop
      vertex 6.320915e-01 1.150000e+01 3.208870e+00
      vertex 1.239887e+00 1.150000e+01 3.208870e+00
      vertex 3.177746e+00 1.150000e+01 1.619999e+00
    endloop
  endfacet
  facet normal 0.000000e+00 1.000000e+00 -6.123234e-17
    outer loop
      vertex -6.320915e-01 1.150000e+01 0.000000e+00
      vertex -1.239895e+00 1.150000e+01 0.000000e+00
      vertex -3.177746e+00 1.150000e+01 1.620001e+00
    endloop
  endfacet
  facet normal 0.000000e+00 1.000000e+00 -6.123234e-17
    outer loop
      vertex -3.814697e-06 1.150000e+01 3.208870e+00
      vertex 6.320915e-01 1.150000e+01 3.208870e+00
      vertex 3.177746e+00 1.150000e+01 1.619999e+00
    endloop
  endfacet
  facet normal 0.000000e+00 1.000000e+00 -6.123234e-17
    outer loop
      vertex 6.320915e-01 1.150000e+01 0.000000e+00
      vertex -3.814697e-06 1.150000e+01 0.000000e+00
      vertex 3.177746e+00 1.150000e+01 1.619999e+00
    endloop
  endfacet
  facet normal 0.000000e+00 1.000000e+00 -6.123234e-17
    outer loop
      vertex -3.814697e-06 1.150000e+01 0.000000e+00
      vertex -6.320915e-01 1.150000e+01 0.000000e+00
      vertex -3.177746e+00 1.150000e+01 1.620001e+00
    endloop
  endfacet
  facet normal 0.000000e+00 1.000000e+00 -6.123234e-17
    outer loop
      vertex -3.814697e-06 1.150000e+01 3.208870e+00
      vertex -3.814697e-06 1.150000e+01 0.000000e+00
      vertex -3.177746e+00 1.150000e+01 1.620001e+00
    endloop
  endfacet
  facet normal 0.000000e+00 1.000000e+00 -6.123234e-17
    outer loop
      vertex -3.814697e-06 1.150000e+01 3.208870e+00
      vertex 3.177746e+00 1.150000e+01 1.619999e+00
      vertex -3.814697e-06 1.150000e+01 0.000000e+00
    endloop
  endfacet
  facet normal 0.000000e+00 1.000000e+00 -6.123234e-17
    outer loop
      vertex 1.239887e+00 1.150000e+01 0.000000e+00
      vertex 3.177746e+00 1.150000e+01 1.619999e+00
      vertex 3.177746e+00 1.150000e+01 0.000000e+00
    endloop
  endfacet
  facet normal 0.000000e+00 1.000000e+00 -6.123234e-17
    outer loop
      vertex 1.239887e+00 1.150000e+01 0.000000e+00
      vertex 6.320915e-01 1.150000e+01 0.000000e+00
      vertex 3.177746e+00 1.150000e+01 1.619999e+00
    endloop
  endfacet
endsolid Default
